<?xml version="1.0" encoding="UTF-8"?>
<svg id="Layer_2" data-name="Layer 2" xmlns="http://www.w3.org/2000/svg" viewBox="0 0 1082.53 184.95">
  <defs>
    <style>
      .cls-1 {
        fill: none;
        stroke: #f7f7f9;
        stroke-miterlimit: 10;
        stroke-width: 5.06px;
      }

      .cls-2 {
        fill: #cf2a30;
      }

      .cls-2, .cls-3 {
        stroke-width: 0px;
      }

      .cls-3 {
        fill: #f7f7f9;
      }
    </style>
  </defs>
  <g id="Layer_1-2" data-name="Layer 1">
    <g>
      <path class="cls-3" d="M103.38,0c20.3,0,37.25,2.42,50.85,7.27,13.6,4.85,24.45,11.41,32.55,19.7,8.1,8.29,13.87,17.84,17.32,28.64,3.44,10.81,5.17,22.17,5.17,34.09s-1.91,23.38-5.73,34.37c-3.82,10.99-9.87,20.72-18.16,29.2-8.29,8.48-19.19,15.18-32.69,20.12-13.51,4.94-29.94,7.4-49.32,7.4H0V0h103.38ZM37.16,148.93h65.38c13.41,0,24.54-1.63,33.39-4.89,8.84-3.26,15.88-7.68,21.1-13.27,5.21-5.59,8.94-11.92,11.18-19,2.23-7.08,3.35-14.43,3.35-22.07s-1.12-14.9-3.35-21.79c-2.24-6.89-5.96-13.04-11.18-18.44-5.22-5.4-12.25-9.68-21.1-12.85-8.85-3.17-19.98-4.75-33.39-4.75H37.16v117.07Z"/>
      <path class="cls-3" d="M308.04,183.85c-13.79,0-26.31-3.03-37.58-9.08-11.27-6.05-20.21-14.53-26.82-25.43-6.61-10.9-9.92-23.51-9.92-37.86s3.35-27.47,10.06-38.28c6.7-10.8,15.79-19.23,27.24-25.29,11.46-6.05,24.45-9.08,38.98-9.08,16.02,0,28.92,3.21,38.7,9.64s16.9,15.14,21.37,26.12c4.47,10.99,6.71,23.29,6.71,36.88,0,8.2-1.31,16.53-3.91,25.01-2.61,8.48-6.61,16.3-12.02,23.47-5.4,7.17-12.48,12.95-21.24,17.32-8.76,4.37-19.28,6.57-31.57,6.57ZM319.78,155.91c10.99,0,20.49-1.86,28.5-5.59,8.01-3.72,14.15-8.94,18.44-15.65,4.28-6.71,6.43-14.43,6.43-23.19,0-9.5-2.19-17.56-6.57-24.17-4.38-6.61-10.53-11.64-18.44-15.09-7.92-3.44-17.37-5.17-28.36-5.17-15.46,0-27.48,4.05-36.04,12.15-8.57,8.1-12.85,18.86-12.85,32.27,0,8.94,2.05,16.72,6.15,23.33,4.1,6.61,9.82,11.78,17.18,15.51,7.36,3.73,15.88,5.59,25.57,5.59ZM373.14,41.91h36.32v138.87h-33.81c-.93-7.27-1.59-13.69-1.96-19.28-.38-5.59-.56-11.08-.56-16.49V41.91Z"/>
      <path class="cls-3" d="M433.91,41.91h36.32v138.87h-36.32V41.91ZM523.6,71.81c-10.43,0-19.47,2-27.1,6.01-7.64,4.01-13.79,8.9-18.44,14.67-4.66,5.78-7.92,11.36-9.78,16.76l-.28-15.37c.18-2.23.93-5.54,2.23-9.92,1.3-4.37,3.26-9.12,5.87-14.25,2.61-5.12,6.05-10.06,10.34-14.81,4.28-4.75,9.5-8.62,15.65-11.6,6.15-2.98,13.32-4.47,21.52-4.47v32.97Z"/>
      <path class="cls-3" d="M548.19,38.84h36.32v141.94h-36.32V38.84Z"/>
      <path class="cls-2" d="M681.52,41.91v36.32h57.68c-.22,4.23-.38,9.75-.46,10.54-1.86,18.86-7.98,39.09-22.89,51.81-10.34,8.83-25.48,12.2-38.32,7.36-11.89-4.48-20.38-15.15-20.38-28.09V41.91h-36.32v84.1c0,11.36,1.77,20.77,5.31,28.22,4.52,9.51,12.24,17.08,21.39,22.16,13.12,7.28,28.71,9.77,43.54,8.01,17.42-2.07,36.49-10.67,45.79-26.26,4.29-7.19,6.74-14.92,8.3-22.89v45.52h36.32V41.91h-99.97Z"/>
      <path class="cls-3" d="M806.07,134.68h33.53c2.05,6.33,6.29,11.5,12.71,15.51,6.43,4.01,14.85,6.01,25.29,6.01,7.08,0,12.57-.65,16.49-1.96,3.91-1.3,6.61-3.21,8.1-5.73,1.49-2.52,2.23-5.35,2.23-8.52,0-3.91-1.21-6.94-3.63-9.08-2.42-2.14-6.15-3.86-11.17-5.17-5.03-1.3-11.46-2.52-19.28-3.63-7.82-1.3-15.37-2.89-22.63-4.75-7.27-1.86-13.69-4.33-19.28-7.4-5.59-3.07-10.02-6.99-13.27-11.74-3.26-4.75-4.89-10.57-4.89-17.46s1.63-12.67,4.89-17.88c3.26-5.21,7.82-9.59,13.69-13.13,5.87-3.54,12.76-6.24,20.68-8.1,7.91-1.86,16.44-2.79,25.57-2.79,13.78,0,25.24,2,34.37,6.01,9.12,4.01,15.97,9.6,20.54,16.76,4.56,7.17,6.84,15.42,6.84,24.73h-32.13c-1.49-6.89-4.47-11.88-8.94-14.95-4.47-3.07-11.36-4.61-20.68-4.61s-16.02,1.4-20.68,4.19c-4.66,2.79-6.99,6.61-6.99,11.46,0,3.91,1.44,6.94,4.33,9.08,2.89,2.14,7.17,3.87,12.85,5.17,5.68,1.31,12.8,2.7,21.38,4.19,7.26,1.49,14.2,3.17,20.82,5.03,6.61,1.86,12.53,4.24,17.74,7.13,5.21,2.89,9.36,6.7,12.43,11.46s4.61,10.76,4.61,18.02c0,8.94-2.56,16.49-7.68,22.63-5.13,6.15-12.43,10.85-21.93,14.11-9.5,3.26-20.86,4.89-34.09,4.89-11.74,0-21.84-1.26-30.32-3.77-8.48-2.52-15.51-5.77-21.1-9.78-5.59-4-9.92-8.29-12.99-12.85-3.07-4.56-5.17-8.89-6.29-12.99-1.12-4.09-1.49-7.45-1.12-10.06Z"/>
      <g>
        <path class="cls-3" d="M1004.02,29.89l-19.61,41.74h9.29l4.12-9.1h21.79l4.15,9.1h9.35l-19.8-41.74h-9.29ZM1001.06,55.37l7.61-16.81,7.67,16.81h-15.28Z"/>
        <rect class="cls-3" x="1038.6" y="39.56" width="8.39" height="32.06"/>
        <rect class="cls-3" x="1037.95" y="25.5" width="9.74" height="7.35"/>
      </g>
      <rect class="cls-1" x="959.14" y="7.96" width="120.86" height="84.07" rx="12.32" ry="12.32"/>
    </g>
  </g>
</svg>