<?xml version="1.0" encoding="UTF-8"?>
<svg id="Layer_2" data-name="Layer 2" xmlns="http://www.w3.org/2000/svg" viewBox="0 0 587.74 523.26">
  <defs>
    <style>
      .cls-1 {
        fill: #cf2a30;
        stroke-width: 0px;
      }
    </style>
  </defs>
  <g id="Layer_1-2" data-name="Layer 1">
    <path class="cls-1" d="M222.01,0v132.89h211.02c-.8,15.47-1.4,35.67-1.69,38.55-6.82,68.99-29.2,143-83.73,189.55-37.82,32.29-93.2,44.64-140.18,26.94-43.48-16.38-74.56-55.42-74.56-102.74V0H0v307.67c0,41.57,6.47,75.99,19.42,103.24,16.53,34.78,44.78,62.49,78.26,81.08,48,26.64,105.04,35.73,159.28,29.29,63.71-7.57,133.48-39.02,167.52-96.06,15.69-26.29,24.67-54.57,30.38-83.72v166.52h132.89V0H222.01Z"/>
  </g>
</svg>